<?xml version="1.0" encoding="UTF-8"?>
<!DOCTYPE svg PUBLIC "-//W3C//DTD SVG 1.1//EN" "http://www.w3.org/Graphics/SVG/1.1/DTD/svg11.dtd">
<svg xmlns="http://www.w3.org/2000/svg" version="1.1" width="999px" height="999px" style="shape-rendering:geometricPrecision; text-rendering:geometricPrecision; image-rendering:optimizeQuality; fill-rule:evenodd; clip-rule:evenodd" xmlns:xlink="http://www.w3.org/1999/xlink">
<g><path style="opacity:0.95" fill="#0068a7" d="M 462.5,210.5 C 504.363,210.561 535.863,228.561 557,264.5C 568.281,285.509 575.447,307.842 578.5,331.5C 579.167,331.833 579.833,332.167 580.5,332.5C 670.986,310.061 722.652,344.894 735.5,437C 779.229,421.45 820.229,427.116 858.5,454C 907.619,492.677 917.452,539.843 888,595.5C 853.706,645.548 807.539,661.382 749.5,643C 743.01,640.502 737.01,637.168 731.5,633C 727.28,628.277 722.613,624.11 717.5,620.5C 704.646,638.187 689.313,653.354 671.5,666C 615.679,695.671 566.179,687.504 523,641.5C 517.755,634.676 512.755,627.676 508,620.5C 488.863,653.947 460.363,674.781 422.5,683C 382.747,692.079 344.747,687.412 308.5,669C 291.383,659.55 277.883,646.383 268,629.5C 243.483,645.339 216.65,651.506 187.5,648C 146.11,639.61 120.943,614.776 112,573.5C 106.249,538.91 113.249,507.243 133,478.5C 147.7,462.493 165.534,451.326 186.5,445C 210.399,438.47 234.732,434.47 259.5,433C 260.624,432.751 261.624,432.251 262.5,431.5C 260.057,426.28 257.89,420.947 256,415.5C 252.768,383.869 263.268,357.702 287.5,337C 294.225,331.969 301.558,327.969 309.5,325C 319.439,323.438 329.439,323.105 339.5,324C 345.166,326.019 350.833,327.686 356.5,329C 358.576,298.431 368.743,270.931 387,246.5C 407.484,224.62 432.651,212.62 462.5,210.5 Z M 457.5,242.5 C 478.358,240.298 497.358,245.131 514.5,257C 539.451,277.319 554.285,303.485 559,335.5C 559.881,345.495 560.714,355.495 561.5,365.5C 585.597,353.846 610.931,349.346 637.5,352C 667.404,358.561 688.237,376.061 700,404.5C 707.318,425.089 711.818,446.256 713.5,468C 714.908,468.315 716.241,467.982 717.5,467C 733.903,452.058 753.237,446.058 775.5,449C 813.781,454.666 842.947,473.833 863,506.5C 875.225,535.598 872.892,563.598 856,590.5C 843.036,608.135 826.536,621.301 806.5,630C 775.402,641.388 749.235,634.555 728,609.5C 722.818,600.465 717.651,591.465 712.5,582.5C 700.726,604.445 686.059,624.278 668.5,642C 654.354,653.405 638.354,661.072 620.5,665C 578.285,668.808 545.785,652.974 523,617.5C 516.913,606.994 511.079,596.327 505.5,585.5C 500.821,597.365 495.655,609.032 490,620.5C 476.838,640.69 458.672,654.523 435.5,662C 399.918,672.896 364.918,671.23 330.5,657C 313.105,648.272 299.605,635.438 290,618.5C 286.758,610.353 283.258,602.353 279.5,594.5C 272.061,604.44 263.728,613.607 254.5,622C 238.204,632.037 220.537,635.37 201.5,632C 168.026,623.192 148.526,601.692 143,567.5C 137.431,513.119 160.597,477.953 212.5,462C 223.361,459.245 234.361,457.245 245.5,456C 264.834,454.452 284.168,452.952 303.5,451.5C 297.483,445.317 291.649,438.983 286,432.5C 283.246,428.921 281.246,424.921 280,420.5C 278.479,388.707 291.979,365.874 320.5,352C 331.29,347.358 341.957,347.691 352.5,353C 359.94,357.442 367.106,362.275 374,367.5C 375.725,351.132 377.725,334.799 380,318.5C 386.323,292.004 400.489,270.837 422.5,255C 433.446,248.52 445.113,244.353 457.5,242.5 Z"/></g>
</svg>
